<?xml version="1.0" encoding="UTF-8"?>
<!DOCTYPE svg PUBLIC "-//W3C//DTD SVG 1.1//EN" "http://www.w3.org/Graphics/SVG/1.1/DTD/svg11.dtd">
<svg xmlns="http://www.w3.org/2000/svg" version="1.1" width="1000px" height="1000px" style="shape-rendering:geometricPrecision; text-rendering:geometricPrecision; image-rendering:optimizeQuality; fill-rule:evenodd; clip-rule:evenodd" xmlns:xlink="http://www.w3.org/1999/xlink">
<g><path style="opacity:0.998" fill="#53c4f7" d="M 574.5,50.5 C 667.167,50.3333 759.834,50.5 852.5,51C 656.667,246.833 460.833,442.667 265,638.5C 219,592.5 173,546.5 127,500.5C 126.333,499.833 126.333,499.167 127,498.5C 276.368,349.299 425.535,199.965 574.5,50.5 Z"/></g>
<g><path style="opacity:0.998" fill="#53c4f7" d="M 611.5,706.5 C 611.167,706.5 610.833,706.5 610.5,706.5C 564.784,659.784 518.451,613.784 471.5,568.5C 505.632,533.868 539.965,499.368 574.5,465C 667.167,464.333 759.833,464.333 852.5,465C 771.965,545.368 691.632,625.868 611.5,706.5 Z"/></g>
<g><path style="opacity:0.999" fill="#28b5f5" d="M 471.5,568.5 C 518.451,613.784 564.784,659.784 610.5,706.5C 597.167,719.167 584.167,732.167 571.5,745.5C 563.833,752.5 556.5,759.833 549.5,767.5C 545.167,771.167 541.167,775.167 537.5,779.5C 534.5,781.833 531.833,784.5 529.5,787.5C 510.167,806.5 490.833,825.5 471.5,844.5C 425.188,798.854 379.188,752.854 333.5,706.5C 379.188,660.146 425.188,614.146 471.5,568.5 Z"/></g>
<g><path style="opacity:0.999" fill="#01477f" d="M 612.5,708.5 C 613.167,708.5 613.5,708.833 613.5,709.5C 597.095,726.069 581.595,743.402 567,761.5C 562.256,768.47 559.089,775.97 557.5,784C 558.788,793.849 560.121,803.683 561.5,813.5C 559.249,814.695 556.915,815.695 554.5,816.5C 553.307,807.984 551.974,799.484 550.5,791C 551.272,784.351 553.439,778.184 557,772.5C 565.008,760.84 573.341,749.507 582,738.5C 592.726,728.94 602.892,718.94 612.5,708.5 Z"/></g>
<g><path style="opacity:0.999" fill="#015191" d="M 614.5,710.5 C 616.167,711.5 617.5,712.833 618.5,714.5C 611.897,721.605 605.063,728.605 598,735.5C 594.497,740.705 590.997,745.872 587.5,751C 587.735,751.873 588.069,752.707 588.5,753.5C 587.289,754.874 586.289,756.374 585.5,758C 587.745,772.719 590.078,787.386 592.5,802C 584.744,805.773 576.744,808.94 568.5,811.5C 566.917,798.513 565.751,785.513 565,772.5C 568.9,764.366 573.567,756.7 579,749.5C 590.671,736.33 602.504,723.33 614.5,710.5 Z"/></g>
<g><path style="opacity:0.996" fill="#01569a" d="M 618.5,714.5 C 696.632,792.132 774.632,869.965 852.5,948C 759.833,948.667 667.167,948.667 574.5,948C 541.965,915.632 509.632,883.132 477.5,850.5C 481.859,846.472 486.193,842.472 490.5,838.5C 490.5,837.833 490.833,837.5 491.5,837.5C 503.32,833.893 514.987,829.893 526.5,825.5C 529.397,824.871 532.064,823.871 534.5,822.5C 537.785,822.072 540.785,821.072 543.5,819.5C 547.235,818.699 550.901,817.699 554.5,816.5C 556.915,815.695 559.249,814.695 561.5,813.5C 563.921,813.122 566.254,812.455 568.5,811.5C 576.744,808.94 584.744,805.773 592.5,802C 590.078,787.386 587.745,772.719 585.5,758C 586.289,756.374 587.289,754.874 588.5,753.5C 588.069,752.707 587.735,751.873 587.5,751C 590.997,745.872 594.497,740.705 598,735.5C 605.063,728.605 611.897,721.605 618.5,714.5 Z"/></g>
<g><path style="opacity:1" fill="#014b86" d="M 613.5,709.5 C 614.167,709.5 614.5,709.833 614.5,710.5C 602.504,723.33 590.671,736.33 579,749.5C 573.567,756.7 568.9,764.366 565,772.5C 565.751,785.513 566.917,798.513 568.5,811.5C 566.254,812.455 563.921,813.122 561.5,813.5C 560.121,803.683 558.788,793.849 557.5,784C 559.089,775.97 562.256,768.47 567,761.5C 581.595,743.402 597.095,726.069 613.5,709.5 Z"/></g>
<g><path style="opacity:1" fill="#014276" d="M 610.5,706.5 C 610.833,706.5 611.167,706.5 611.5,706.5C 611.833,707.167 612.167,707.833 612.5,708.5C 602.892,718.94 592.726,728.94 582,738.5C 573.341,749.507 565.008,760.84 557,772.5C 553.439,778.184 551.272,784.351 550.5,791C 551.974,799.484 553.307,807.984 554.5,816.5C 550.901,817.699 547.235,818.699 543.5,819.5C 542.928,812.83 542.262,806.163 541.5,799.5C 542.892,786.716 548.059,775.716 557,766.5C 557.333,765.167 557.667,763.833 558,762.5C 563.643,757.729 568.143,752.062 571.5,745.5C 584.167,732.167 597.167,719.167 610.5,706.5 Z"/></g>
<g><path style="opacity:1" fill="#013c6b" d="M 571.5,745.5 C 568.143,752.062 563.643,757.729 558,762.5C 557.667,763.833 557.333,765.167 557,766.5C 548.059,775.716 542.892,786.716 541.5,799.5C 542.262,806.163 542.928,812.83 543.5,819.5C 540.785,821.072 537.785,822.072 534.5,822.5C 530.899,807.708 533.399,794.041 542,781.5C 545,777.5 548,773.5 551,769.5C 551.528,768.184 551.028,767.517 549.5,767.5C 556.5,759.833 563.833,752.5 571.5,745.5 Z"/></g>
<g><path style="opacity:1" fill="#00345d" d="M 549.5,767.5 C 551.028,767.517 551.528,768.184 551,769.5C 548,773.5 545,777.5 542,781.5C 533.399,794.041 530.899,807.708 534.5,822.5C 532.064,823.871 529.397,824.871 526.5,825.5C 523.645,809.538 527.478,795.204 538,782.5C 538.74,781.251 538.573,780.251 537.5,779.5C 541.167,775.167 545.167,771.167 549.5,767.5 Z"/></g>
<g><path style="opacity:1" fill="#002948" d="M 529.5,787.5 C 525.944,793.321 523.444,799.654 522,806.5C 511.631,816.702 501.465,827.035 491.5,837.5C 490.833,837.5 490.5,837.833 490.5,838.5C 484.243,840.3 478.243,842.633 472.5,845.5C 471.833,845.5 471.5,845.167 471.5,844.5C 490.833,825.5 510.167,806.5 529.5,787.5 Z"/></g>
<g><path style="opacity:1" fill="#002d50" d="M 537.5,779.5 C 538.573,780.251 538.74,781.251 538,782.5C 527.478,795.204 523.645,809.538 526.5,825.5C 514.987,829.893 503.32,833.893 491.5,837.5C 501.465,827.035 511.631,816.702 522,806.5C 523.444,799.654 525.944,793.321 529.5,787.5C 531.833,784.5 534.5,781.833 537.5,779.5 Z"/></g>
<g><path style="opacity:0.987" fill="#014a85" d="M 490.5,838.5 C 486.193,842.472 481.859,846.472 477.5,850.5C 475.5,849.167 473.833,847.5 472.5,845.5C 478.243,842.633 484.243,840.3 490.5,838.5 Z"/></g>
</svg>
